<?xml version="1.0" encoding="utf-8"?><svg xmlns="http://www.w3.org/2000/svg" xmlns:xlink="http://www.w3.org/1999/xlink" width="1280" height="616" preserveAspectRatio="xMidYMid" viewBox="0 0 1280 616" style="z-index:1;margin-right:-1.33333px;display:block;background-repeat-y:initial;background-repeat-x:initial;background-color:rgb(241, 242, 243);animation-play-state:paused" ><g transform="translate(640,308) scale(1,1) translate(-640,-308)" style="transform:matrix(1, 0, 0, 1, 0, 0);animation-play-state:paused" ><g id="bk-0.5527466961538519" style="animation-play-state:paused" ><path d="M 635 265 L 645 349 L 719 344 Z" stroke="#3f8ddf" fill="#3f8ddf" style="animation-play-state:paused" ></path>
<path d="M 719 344 L 745 274 L 635 265 Z" stroke="#3f8edf" fill="#3f8edf" style="animation-play-state:paused" ></path>
<path d="M 635 265 L 542 361 L 645 349 Z" stroke="#418fe0" fill="#418fe0" style="animation-play-state:paused" ></path>
<path d="M 643 160 L 527 266 L 635 265 Z" stroke="#5198e5" fill="#5198e5" style="animation-play-state:paused" ></path>
<path d="M 635 265 L 527 266 L 542 361 Z" stroke="#4993e3" fill="#4993e3" style="animation-play-state:paused" ></path>
<path d="M 742 153 L 643 160 L 635 265 Z" stroke="#5299e6" fill="#5299e6" style="animation-play-state:paused" ></path>
<path d="M 542 361 L 643 460 L 645 349 Z" stroke="#3c8bdc" fill="#3c8bdc" style="animation-play-state:paused" ></path>
<path d="M 645 349 L 643 460 L 719 344 Z" stroke="#3b8ada" fill="#3b8ada" style="animation-play-state:paused" ></path>
<path d="M 738 463 L 819 343 L 719 344 Z" stroke="#3787d7" fill="#3787d7" style="animation-play-state:paused" ></path>
<path d="M 719 344 L 819 343 L 745 274 Z" stroke="#3c8bdb" fill="#3c8bdb" style="animation-play-state:paused" ></path>
<path d="M 643 460 L 738 463 L 719 344 Z" stroke="#3787d7" fill="#3787d7" style="animation-play-state:paused" ></path>
<path d="M 819 343 L 823 240 L 745 274 Z" stroke="#3d8cdd" fill="#3d8cdd" style="animation-play-state:paused" ></path>
<path d="M 745 274 L 742 153 L 635 265 Z" stroke="#4994e3" fill="#4994e3" style="animation-play-state:paused" ></path>
<path d="M 823 240 L 742 153 L 745 274 Z" stroke="#4692e2" fill="#4692e2" style="animation-play-state:paused" ></path>
<path d="M 450 372 L 543 457 L 542 361 Z" stroke="#408ee0" fill="#408ee0" style="animation-play-state:paused" ></path>
<path d="M 542 361 L 543 457 L 643 460 Z" stroke="#3c8bdb" fill="#3c8bdb" style="animation-play-state:paused" ></path>
<path d="M 924 238 L 865 165 L 823 240 Z" stroke="#418fe0" fill="#418fe0" style="animation-play-state:paused" ></path>
<path d="M 823 240 L 865 165 L 742 153 Z" stroke="#4b94e3" fill="#4b94e3" style="animation-play-state:paused" ></path>
<path d="M 539 77 L 527 150 L 643 160 Z" stroke="#64a5eb" fill="#64a5eb" style="animation-play-state:paused" ></path>
<path d="M 643 160 L 527 150 L 527 266 Z" stroke="#5a9ee8" fill="#5a9ee8" style="animation-play-state:paused" ></path>
<path d="M 527 266 L 441 257 L 542 361 Z" stroke="#4f97e4" fill="#4f97e4" style="animation-play-state:paused" ></path>
<path d="M 434 169 L 441 257 L 527 266 Z" stroke="#5b9fe8" fill="#5b9fe8" style="animation-play-state:paused" ></path>
<path d="M 441 257 L 450 372 L 542 361 Z" stroke="#4c95e4" fill="#4c95e4" style="animation-play-state:paused" ></path>
<path d="M 857 556 L 847 468 L 738 463 Z" stroke="#2e81ce" fill="#2e81ce" style="animation-play-state:paused" ></path>
<path d="M 738 463 L 847 468 L 819 343 Z" stroke="#3384d3" fill="#3384d3" style="animation-play-state:paused" ></path>
<path d="M 930 359 L 924 238 L 823 240 Z" stroke="#3b8adb" fill="#3b8adb" style="animation-play-state:paused" ></path>
<path d="M 543 457 L 618 546 L 643 460 Z" stroke="#3787d7" fill="#3787d7" style="animation-play-state:paused" ></path>
<path d="M 643 460 L 746 546 L 738 463 Z" stroke="#3384d2" fill="#3384d2" style="animation-play-state:paused" ></path>
<path d="M 618 546 L 746 546 L 643 460 Z" stroke="#3384d3" fill="#3384d3" style="animation-play-state:paused" ></path>
<path d="M 733 67 L 654 79 L 742 153 Z" stroke="#60a2ea" fill="#60a2ea" style="animation-play-state:paused" ></path>
<path d="M 742 153 L 654 79 L 643 160 Z" stroke="#5da0e9" fill="#5da0e9" style="animation-play-state:paused" ></path>
<path d="M 930 359 L 823 240 L 819 343 Z" stroke="#3989d9" fill="#3989d9" style="animation-play-state:paused" ></path>
<path d="M 847 468 L 930 359 L 819 343 Z" stroke="#3384d3" fill="#3384d3" style="animation-play-state:paused" ></path>
<path d="M 840 75 L 742 153 L 865 165 Z" stroke="#559be6" fill="#559be6" style="animation-play-state:paused" ></path>
<path d="M 840 75 L 733 67 L 742 153 Z" stroke="#5da0e9" fill="#5da0e9" style="animation-play-state:paused" ></path>
<path d="M 654 79 L 539 77 L 643 160 Z" stroke="#65a6ec" fill="#65a6ec" style="animation-play-state:paused" ></path>
<path d="M 527 150 L 434 169 L 527 266 Z" stroke="#5fa1e9" fill="#5fa1e9" style="animation-play-state:paused" ></path>
<path d="M 543 457 L 524 551 L 618 546 Z" stroke="#3787d7" fill="#3787d7" style="animation-play-state:paused" ></path>
<path d="M 739 664 L 857 556 L 746 546 Z" stroke="#2a7eca" fill="#2a7eca" style="animation-play-state:paused" ></path>
<path d="M 437 457 L 524 551 L 543 457 Z" stroke="#3b8adb" fill="#3b8adb" style="animation-play-state:paused" ></path>
<path d="M 331 467 L 437 457 L 450 372 Z" stroke="#4591e1" fill="#4591e1" style="animation-play-state:paused" ></path>
<path d="M 450 372 L 437 457 L 543 457 Z" stroke="#3f8ddf" fill="#3f8ddf" style="animation-play-state:paused" ></path>
<path d="M 429 56 L 434 169 L 527 150 Z" stroke="#6baaee" fill="#6baaee" style="animation-play-state:paused" ></path>
<path d="M 441 257 L 346 258 L 450 372 Z" stroke="#569ce7" fill="#569ce7" style="animation-play-state:paused" ></path>
<path d="M 925 45 L 840 75 L 865 165 Z" stroke="#589de7" fill="#589de7" style="animation-play-state:paused" ></path>
<path d="M 620 655 L 746 546 L 618 546 Z" stroke="#3082d0" fill="#3082d0" style="animation-play-state:paused" ></path>
<path d="M 746 546 L 857 556 L 738 463 Z" stroke="#2e81ce" fill="#2e81ce" style="animation-play-state:paused" ></path>
<path d="M 847 468 L 962 477 L 930 359 Z" stroke="#2e81ce" fill="#2e81ce" style="animation-play-state:paused" ></path>
<path d="M 1036 263 L 939 164 L 924 238 Z" stroke="#3e8cdd" fill="#3e8cdd" style="animation-play-state:paused" ></path>
<path d="M 924 238 L 939 164 L 865 165 Z" stroke="#4490e1" fill="#4490e1" style="animation-play-state:paused" ></path>
<path d="M 950 585 L 962 477 L 847 468 Z" stroke="#297dc9" fill="#297dc9" style="animation-play-state:paused" ></path>
<path d="M 930 359 L 1025 334 L 924 238 Z" stroke="#3687d6" fill="#3687d6" style="animation-play-state:paused" ></path>
<path d="M 434 169 L 346 258 L 441 257 Z" stroke="#60a2ea" fill="#60a2ea" style="animation-play-state:paused" ></path>
<path d="M 524 551 L 620 655 L 618 546 Z" stroke="#3485d3" fill="#3485d3" style="animation-play-state:paused" ></path>
<path d="M 331 467 L 425 556 L 437 457 Z" stroke="#408edf" fill="#408edf" style="animation-play-state:paused" ></path>
<path d="M 437 457 L 425 556 L 524 551 Z" stroke="#3c8bdb" fill="#3c8bdb" style="animation-play-state:paused" ></path>
<path d="M 524 551 L 563 682 L 620 655 Z" stroke="#3384d2" fill="#3384d2" style="animation-play-state:paused" ></path>
<path d="M 620 655 L 739 664 L 746 546 Z" stroke="#2d80cd" fill="#2d80cd" style="animation-play-state:paused" ></path>
<path d="M 733 67 L 645 -37 L 654 79 Z" stroke="#6dabee" fill="#6dabee" style="animation-play-state:paused" ></path>
<path d="M 654 79 L 645 -37 L 539 77 Z" stroke="#70adef" fill="#70adef" style="animation-play-state:paused" ></path>
<path d="M 539 77 L 429 56 L 527 150 Z" stroke="#6eacef" fill="#6eacef" style="animation-play-state:paused" ></path>
<path d="M 741 -45 L 645 -37 L 733 67 Z" stroke="#73aff0" fill="#73aff0" style="animation-play-state:paused" ></path>
<path d="M 1045 444 L 1025 334 L 930 359 Z" stroke="#3082d0" fill="#3082d0" style="animation-play-state:paused" ></path>
<path d="M 840 75 L 741 -45 L 733 67 Z" stroke="#69a8ed" fill="#69a8ed" style="animation-play-state:paused" ></path>
<path d="M 346 258 L 314 345 L 450 372 Z" stroke="#569be7" fill="#569be7" style="animation-play-state:paused" ></path>
<path d="M 530 -54 L 429 56 L 539 77 Z" stroke="#79b3f2" fill="#79b3f2" style="animation-play-state:paused" ></path>
<path d="M 434 169 L 345 149 L 346 258 Z" stroke="#68a7ed" fill="#68a7ed" style="animation-play-state:paused" ></path>
<path d="M 1044 69 L 925 45 L 939 164 Z" stroke="#549ae6" fill="#549ae6" style="animation-play-state:paused" ></path>
<path d="M 939 164 L 925 45 L 865 165 Z" stroke="#5198e5" fill="#5198e5" style="animation-play-state:paused" ></path>
<path d="M 840 75 L 840 -42 L 741 -45 Z" stroke="#6eabef" fill="#6eabef" style="animation-play-state:paused" ></path>
<path d="M 1025 334 L 1036 263 L 924 238 Z" stroke="#3888d8" fill="#3888d8" style="animation-play-state:paused" ></path>
<path d="M 314 345 L 331 467 L 450 372 Z" stroke="#4e96e4" fill="#4e96e4" style="animation-play-state:paused" ></path>
<path d="M 344 70 L 345 149 L 434 169 Z" stroke="#71aef0" fill="#71aef0" style="animation-play-state:paused" ></path>
<path d="M 346 258 L 262 286 L 314 345 Z" stroke="#5fa1ea" fill="#5fa1ea" style="animation-play-state:paused" ></path>
<path d="M 857 556 L 950 585 L 847 468 Z" stroke="#287dc9" fill="#287dc9" style="animation-play-state:paused" ></path>
<path d="M 962 477 L 1045 444 L 930 359 Z" stroke="#2d80cd" fill="#2d80cd" style="animation-play-state:paused" ></path>
<path d="M 848 662 L 950 585 L 857 556 Z" stroke="#247ac5" fill="#247ac5" style="animation-play-state:paused" ></path>
<path d="M 454 659 L 524 551 L 425 556 Z" stroke="#3988d9" fill="#3988d9" style="animation-play-state:paused" ></path>
<path d="M 454 659 L 563 682 L 524 551 Z" stroke="#3586d5" fill="#3586d5" style="animation-play-state:paused" ></path>
<path d="M 620 655 L 657 779 L 739 664 Z" stroke="#2c7fcc" fill="#2c7fcc" style="animation-play-state:paused" ></path>
<path d="M 1043 576 L 1045 444 L 962 477 Z" stroke="#257bc6" fill="#257bc6" style="animation-play-state:paused" ></path>
<path d="M 1025 334 L 1130 256 L 1036 263 Z" stroke="#3686d6" fill="#3686d6" style="animation-play-state:paused" ></path>
<path d="M 925 45 L 840 -42 L 840 75 Z" stroke="#65a6ec" fill="#65a6ec" style="animation-play-state:paused" ></path>
<path d="M 636 -146 L 530 -54 L 645 -37 Z" stroke="#84bcf6" fill="#84bcf6" style="animation-play-state:paused" ></path>
<path d="M 636 -146 L 645 -37 L 748 -114 Z" stroke="#84bcf6" fill="#84bcf6" style="animation-play-state:paused" ></path>
<path d="M 645 -37 L 530 -54 L 539 77 Z" stroke="#7ab4f3" fill="#7ab4f3" style="animation-play-state:paused" ></path>
<path d="M 769 778 L 848 662 L 739 664 Z" stroke="#267bc6" fill="#267bc6" style="animation-play-state:paused" ></path>
<path d="M 739 664 L 848 662 L 857 556 Z" stroke="#277cc7" fill="#277cc7" style="animation-play-state:paused" ></path>
<path d="M 1130 256 L 1048 162 L 1036 263 Z" stroke="#3b8ada" fill="#3b8ada" style="animation-play-state:paused" ></path>
<path d="M 1036 263 L 1048 162 L 939 164 Z" stroke="#3f8ddf" fill="#3f8ddf" style="animation-play-state:paused" ></path>
<path d="M 348 -31 L 344 70 L 429 56 Z" stroke="#7fb8f5" fill="#7fb8f5" style="animation-play-state:paused" ></path>
<path d="M 429 56 L 344 70 L 434 169 Z" stroke="#74b0f1" fill="#74b0f1" style="animation-play-state:paused" ></path>
<path d="M 223 458 L 317 538 L 331 467 Z" stroke="#4b94e3" fill="#4b94e3" style="animation-play-state:paused" ></path>
<path d="M 331 467 L 317 538 L 425 556 Z" stroke="#408ee0" fill="#408ee0" style="animation-play-state:paused" ></path>
<path d="M 344 657 L 454 659 L 425 556 Z" stroke="#3b8ada" fill="#3b8ada" style="animation-play-state:paused" ></path>
<path d="M 223 149 L 262 286 L 345 149 Z" stroke="#6facef" fill="#6facef" style="animation-play-state:paused" ></path>
<path d="M 345 149 L 262 286 L 346 258 Z" stroke="#67a7ec" fill="#67a7ec" style="animation-play-state:paused" ></path>
<path d="M 314 345 L 227 353 L 331 467 Z" stroke="#559be7" fill="#559be7" style="animation-play-state:paused" ></path>
<path d="M 530 -54 L 447 -52 L 429 56 Z" stroke="#81b9f5" fill="#81b9f5" style="animation-play-state:paused" ></path>
<path d="M 925 45 L 923 -47 L 840 -42 Z" stroke="#6caaee" fill="#6caaee" style="animation-play-state:paused" ></path>
<path d="M 748 -114 L 645 -37 L 741 -45 Z" stroke="#7db6f4" fill="#7db6f4" style="animation-play-state:paused" ></path>
<path d="M 1038 -35 L 923 -47 L 925 45 Z" stroke="#69a8ed" fill="#69a8ed" style="animation-play-state:paused" ></path>
<path d="M 848 662 L 950 666 L 950 585 Z" stroke="#2178c2" fill="#2178c2" style="animation-play-state:paused" ></path>
<path d="M 950 585 L 1043 576 L 962 477 Z" stroke="#237ac4" fill="#237ac4" style="animation-play-state:paused" ></path>
<path d="M 941 761 L 950 666 L 848 662 Z" stroke="#1e77c0" fill="#1e77c0" style="animation-play-state:paused" ></path>
<path d="M 1048 162 L 1044 69 L 939 164 Z" stroke="#4a94e3" fill="#4a94e3" style="animation-play-state:paused" ></path>
<path d="M 748 -114 L 741 -45 L 840 -42 Z" stroke="#7ab4f3" fill="#7ab4f3" style="animation-play-state:paused" ></path>
<path d="M 530 -54 L 441 -156 L 447 -52 Z" stroke="#8ec2f8" fill="#8ec2f8" style="animation-play-state:paused" ></path>
<path d="M 262 286 L 227 353 L 314 345 Z" stroke="#5fa1e9" fill="#5fa1e9" style="animation-play-state:paused" ></path>
<path d="M 1059 662 L 1043 576 L 950 585 Z" stroke="#1d76bf" fill="#1d76bf" style="animation-play-state:paused" ></path>
<path d="M 1164 389 L 1130 256 L 1025 334 Z" stroke="#3183d1" fill="#3183d1" style="animation-play-state:paused" ></path>
<path d="M 838 -138 L 748 -114 L 840 -42 Z" stroke="#7eb7f4" fill="#7eb7f4" style="animation-play-state:paused" ></path>
<path d="M 527 772 L 657 779 L 563 682 Z" stroke="#3082cf" fill="#3082cf" style="animation-play-state:paused" ></path>
<path d="M 563 682 L 657 779 L 620 655 Z" stroke="#2f81ce" fill="#2f81ce" style="animation-play-state:paused" ></path>
<path d="M 1113 456 L 1025 334 L 1045 444 Z" stroke="#2b7fcb" fill="#2b7fcb" style="animation-play-state:paused" ></path>
<path d="M 1048 162 L 1145 163 L 1044 69 Z" stroke="#4792e2" fill="#4792e2" style="animation-play-state:paused" ></path>
<path d="M 227 353 L 223 458 L 331 467 Z" stroke="#549ae6" fill="#549ae6" style="animation-play-state:paused" ></path>
<path d="M 657 779 L 769 778 L 739 664 Z" stroke="#287dc9" fill="#287dc9" style="animation-play-state:paused" ></path>
<path d="M 425 760 L 527 772 L 454 659 Z" stroke="#3586d5" fill="#3586d5" style="animation-play-state:paused" ></path>
<path d="M 454 659 L 527 772 L 563 682 Z" stroke="#3485d3" fill="#3485d3" style="animation-play-state:paused" ></path>
<path d="M 657 779 L 527 772 L 769 778 Z" stroke="#2c7fcc" fill="#2c7fcc" style="animation-play-state:paused" ></path>
<path d="M 1043 576 L 1113 456 L 1045 444 Z" stroke="#247ac5" fill="#247ac5" style="animation-play-state:paused" ></path>
<path d="M 344 70 L 223 149 L 345 149 Z" stroke="#77b2f2" fill="#77b2f2" style="animation-play-state:paused" ></path>
<path d="M 262 286 L 159 268 L 227 353 Z" stroke="#66a6ec" fill="#66a6ec" style="animation-play-state:paused" ></path>
<path d="M 217 36 L 223 149 L 344 70 Z" stroke="#7fb8f5" fill="#7fb8f5" style="animation-play-state:paused" ></path>
<path d="M 923 -47 L 838 -138 L 840 -42 Z" stroke="#78b3f2" fill="#78b3f2" style="animation-play-state:paused" ></path>
<path d="M 748 -114 L 526 -140 L 636 -146 Z" stroke="#8dc1f8" fill="#8dc1f8" style="animation-play-state:paused" ></path>
<path d="M 769 778 L 834 777 L 848 662 Z" stroke="#2379c4" fill="#2379c4" style="animation-play-state:paused" ></path>
<path d="M 1113 456 L 1164 389 L 1025 334 Z" stroke="#2c7fcc" fill="#2c7fcc" style="animation-play-state:paused" ></path>
<path d="M 441 -156 L 348 -31 L 447 -52 Z" stroke="#91c3f9" fill="#91c3f9" style="animation-play-state:paused" ></path>
<path d="M 447 -52 L 348 -31 L 429 56 Z" stroke="#84bbf6" fill="#84bbf6" style="animation-play-state:paused" ></path>
<path d="M 245 566 L 344 657 L 317 538 Z" stroke="#418fe0" fill="#418fe0" style="animation-play-state:paused" ></path>
<path d="M 317 538 L 344 657 L 425 556 Z" stroke="#3e8cde" fill="#3e8cde" style="animation-play-state:paused" ></path>
<path d="M 1234 161 L 1145 163 L 1130 256 Z" stroke="#3c8bdc" fill="#3c8bdc" style="animation-play-state:paused" ></path>
<path d="M 1130 256 L 1145 163 L 1048 162 Z" stroke="#3d8cdd" fill="#3d8cdd" style="animation-play-state:paused" ></path>
<path d="M 1044 69 L 1038 -35 L 925 45 Z" stroke="#60a2ea" fill="#60a2ea" style="animation-play-state:paused" ></path>
<path d="M 923 -47 L 933 -150 L 838 -138 Z" stroke="#7db7f4" fill="#7db7f4" style="animation-play-state:paused" ></path>
<path d="M 1024 -145 L 526 -140 L 748 -114 Z" stroke="#86bdf7" fill="#86bdf7" style="animation-play-state:paused" ></path>
<path d="M 636 -146 L 526 -140 L 530 -54 Z" stroke="#8dc1f8" fill="#8dc1f8" style="animation-play-state:paused" ></path>
<path d="M 341 754 L 425 760 L 454 659 Z" stroke="#3988d8" fill="#3988d8" style="animation-play-state:paused" ></path>
<path d="M 527 772 L 164 760 L 769 778 Z" stroke="#3485d4" fill="#3485d4" style="animation-play-state:paused" ></path>
<path d="M 223 458 L 245 566 L 317 538 Z" stroke="#4b94e3" fill="#4b94e3" style="animation-play-state:paused" ></path>
<path d="M 344 657 L 341 754 L 454 659 Z" stroke="#3a8ada" fill="#3a8ada" style="animation-play-state:paused" ></path>
<path d="M 137 556 L 245 566 L 223 458 Z" stroke="#5198e5" fill="#5198e5" style="animation-play-state:paused" ></path>
<path d="M 1164 -38 L 1038 -35 L 1044 69 Z" stroke="#62a3eb" fill="#62a3eb" style="animation-play-state:paused" ></path>
<path d="M 950 666 L 1059 662 L 950 585 Z" stroke="#1d76bf" fill="#1d76bf" style="animation-play-state:paused" ></path>
<path d="M 1043 576 L 1163 554 L 1113 456 Z" stroke="#1f77c1" fill="#1f77c1" style="animation-play-state:paused" ></path>
<path d="M 1221 437 L 1241 365 L 1164 389 Z" stroke="#287dc9" fill="#287dc9" style="animation-play-state:paused" ></path>
<path d="M 941 761 L 1059 662 L 950 666 Z" stroke="#1a74bd" fill="#1a74bd" style="animation-play-state:paused" ></path>
<path d="M 526 -140 L 441 -156 L 530 -54 Z" stroke="#93c4f9" fill="#93c4f9" style="animation-play-state:paused" ></path>
<path d="M 1038 -35 L 933 -150 L 923 -47 Z" stroke="#75b0f1" fill="#75b0f1" style="animation-play-state:paused" ></path>
<path d="M 838 -138 L 1024 -145 L 748 -114 Z" stroke="#82baf6" fill="#82baf6" style="animation-play-state:paused" ></path>
<path d="M 251 -31 L 344 70 L 348 -31 Z" stroke="#88bef8" fill="#88bef8" style="animation-play-state:paused" ></path>
<path d="M 251 -31 L 217 36 L 344 70 Z" stroke="#87bef7" fill="#87bef7" style="animation-play-state:paused" ></path>
<path d="M 223 149 L 159 268 L 262 286 Z" stroke="#6eacef" fill="#6eacef" style="animation-play-state:paused" ></path>
<path d="M 227 353 L 153 366 L 223 458 Z" stroke="#5da0e9" fill="#5da0e9" style="animation-play-state:paused" ></path>
<path d="M 136 150 L 159 268 L 223 149 Z" stroke="#77b2f2" fill="#77b2f2" style="animation-play-state:paused" ></path>
<path d="M 769 778 L 941 761 L 834 777 Z" stroke="#2078c2" fill="#2078c2" style="animation-play-state:paused" ></path>
<path d="M 834 777 L 941 761 L 848 662 Z" stroke="#2077c1" fill="#2077c1" style="animation-play-state:paused" ></path>
<path d="M 159 268 L 153 366 L 227 353 Z" stroke="#66a6ec" fill="#66a6ec" style="animation-play-state:paused" ></path>
<path d="M 1145 163 L 1161 60 L 1044 69 Z" stroke="#4d96e4" fill="#4d96e4" style="animation-play-state:paused" ></path>
<path d="M 1038 -35 L 1024 -145 L 933 -150 Z" stroke="#79b4f3" fill="#79b4f3" style="animation-play-state:paused" ></path>
<path d="M 1234 161 L 1161 60 L 1145 163 Z" stroke="#4490e1" fill="#4490e1" style="animation-play-state:paused" ></path>
<path d="M 1059 662 L 1163 554 L 1043 576 Z" stroke="#1a74bd" fill="#1a74bd" style="animation-play-state:paused" ></path>
<path d="M 262 -123 L 251 -31 L 348 -31 Z" stroke="#97c6f9" fill="#97c6f9" style="animation-play-state:paused" ></path>
<path d="M 145 67 L 136 150 L 223 149 Z" stroke="#80b9f5" fill="#80b9f5" style="animation-play-state:paused" ></path>
<path d="M 145 67 L 223 149 L 217 36 Z" stroke="#84bbf6" fill="#84bbf6" style="animation-play-state:paused" ></path>
<path d="M 54 360 L 139 446 L 153 366 Z" stroke="#65a6ec" fill="#65a6ec" style="animation-play-state:paused" ></path>
<path d="M 1221 437 L 1164 389 L 1113 456 Z" stroke="#267cc7" fill="#267cc7" style="animation-play-state:paused" ></path>
<path d="M 1164 389 L 1241 365 L 1130 256 Z" stroke="#2f81cf" fill="#2f81cf" style="animation-play-state:paused" ></path>
<path d="M 130 667 L 253 673 L 245 566 Z" stroke="#4993e2" fill="#4993e2" style="animation-play-state:paused" ></path>
<path d="M 245 566 L 253 673 L 344 657 Z" stroke="#408ee0" fill="#408ee0" style="animation-play-state:paused" ></path>
<path d="M 253 673 L 341 754 L 344 657 Z" stroke="#3d8cdd" fill="#3d8cdd" style="animation-play-state:paused" ></path>
<path d="M 425 760 L 164 760 L 527 772 Z" stroke="#3a89da" fill="#3a89da" style="animation-play-state:paused" ></path>
<path d="M 54 360 L 153 366 L 159 268 Z" stroke="#6ba9ee" fill="#6ba9ee" style="animation-play-state:paused" ></path>
<path d="M 153 366 L 139 446 L 223 458 Z" stroke="#5da0e9" fill="#5da0e9" style="animation-play-state:paused" ></path>
<path d="M 1163 554 L 1221 437 L 1113 456 Z" stroke="#2178c3" fill="#2178c3" style="animation-play-state:paused" ></path>
<path d="M 1248 259 L 1234 161 L 1130 256 Z" stroke="#3888d8" fill="#3888d8" style="animation-play-state:paused" ></path>
<path d="M 1241 365 L 1248 259 L 1130 256 Z" stroke="#3284d2" fill="#3284d2" style="animation-play-state:paused" ></path>
<path d="M 1332 268 L 1248 259 L 1353 360 Z" stroke="#3082d0" fill="#3082d0" style="animation-play-state:paused" ></path>
<path d="M 526 -140 L 335 -151 L 441 -156 Z" stroke="#9ecbfa" fill="#9ecbfa" style="animation-play-state:paused" ></path>
<path d="M 441 -156 L 335 -151 L 348 -31 Z" stroke="#9bc9f9" fill="#9bc9f9" style="animation-play-state:paused" ></path>
<path d="M 1141 -154 L 1024 -145 L 1038 -35 Z" stroke="#78b2f2" fill="#78b2f2" style="animation-play-state:paused" ></path>
<path d="M 933 -150 L 1024 -145 L 838 -138 Z" stroke="#82baf6" fill="#82baf6" style="animation-play-state:paused" ></path>
<path d="M 1164 -38 L 1044 69 L 1161 60 Z" stroke="#5a9ee8" fill="#5a9ee8" style="animation-play-state:paused" ></path>
<path d="M 1236 74 L 1164 -38 L 1161 60 Z" stroke="#589de7" fill="#589de7" style="animation-play-state:paused" ></path>
<path d="M 1059 662 L 1136 677 L 1163 554 Z" stroke="#1771bb" fill="#1771bb" style="animation-play-state:paused" ></path>
<path d="M 1163 554 L 1238 550 L 1221 437 Z" stroke="#1c76bf" fill="#1c76bf" style="animation-play-state:paused" ></path>
<path d="M 1129 741 L 1136 677 L 1059 662 Z" stroke="#156eb9" fill="#156eb9" style="animation-play-state:paused" ></path>
<path d="M 941 761 L 1054 778 L 1059 662 Z" stroke="#1871bb" fill="#1871bb" style="animation-play-state:paused" ></path>
<path d="M 769 778 L 1054 778 L 941 761 Z" stroke="#1c75bf" fill="#1c75bf" style="animation-play-state:paused" ></path>
<path d="M 139 446 L 137 556 L 223 458 Z" stroke="#589ce7" fill="#589ce7" style="animation-play-state:paused" ></path>
<path d="M 253 673 L 251 772 L 341 754 Z" stroke="#3e8dde" fill="#3e8dde" style="animation-play-state:paused" ></path>
<path d="M 151 -38 L 217 36 L 251 -31 Z" stroke="#93c5f9" fill="#93c5f9" style="animation-play-state:paused" ></path>
<path d="M 151 -38 L 145 67 L 217 36 Z" stroke="#90c3f9" fill="#90c3f9" style="animation-play-state:paused" ></path>
<path d="M 136 150 L 57 266 L 159 268 Z" stroke="#77b2f2" fill="#77b2f2" style="animation-play-state:paused" ></path>
<path d="M 1234 642 L 1238 550 L 1163 554 Z" stroke="#1770bb" fill="#1770bb" style="animation-play-state:paused" ></path>
<path d="M 1353 360 L 1248 259 L 1241 365 Z" stroke="#2d80cd" fill="#2d80cd" style="animation-play-state:paused" ></path>
<path d="M 335 -151 L 262 -123 L 348 -31 Z" stroke="#9dcaf9" fill="#9dcaf9" style="animation-play-state:paused" ></path>
<path d="M 1234 161 L 1236 74 L 1161 60 Z" stroke="#4993e3" fill="#4993e3" style="animation-play-state:paused" ></path>
<path d="M 1321 142 L 1236 74 L 1234 161 Z" stroke="#418fe0" fill="#418fe0" style="animation-play-state:paused" ></path>
<path d="M 137 -133 L 151 -38 L 251 -31 Z" stroke="#a1ccfa" fill="#a1ccfa" style="animation-play-state:paused" ></path>
<path d="M 164 760 L 251 772 L 253 673 Z" stroke="#4390e1" fill="#4390e1" style="animation-play-state:paused" ></path>
<path d="M 341 754 L 251 772 L 425 760 Z" stroke="#3b8adb" fill="#3b8adb" style="animation-play-state:paused" ></path>
<path d="M 48 161 L 136 150 L 58 83 Z" stroke="#86bdf7" fill="#86bdf7" style="animation-play-state:paused" ></path>
<path d="M 48 161 L 57 266 L 136 150 Z" stroke="#7eb7f4" fill="#7eb7f4" style="animation-play-state:paused" ></path>
<path d="M 139 446 L 51 462 L 137 556 Z" stroke="#5da0e9" fill="#5da0e9" style="animation-play-state:paused" ></path>
<path d="M 1054 778 L 1129 741 L 1059 662 Z" stroke="#156eb9" fill="#156eb9" style="animation-play-state:paused" ></path>
<path d="M 1136 677 L 1234 642 L 1163 554 Z" stroke="#166fb9" fill="#166fb9" style="animation-play-state:paused" ></path>
<path d="M 57 266 L 54 360 L 159 268 Z" stroke="#71aef0" fill="#71aef0" style="animation-play-state:paused" ></path>
<path d="M 52 570 L 130 667 L 137 556 Z" stroke="#569be7" fill="#569be7" style="animation-play-state:paused" ></path>
<path d="M 137 556 L 130 667 L 245 566 Z" stroke="#4f97e4" fill="#4f97e4" style="animation-play-state:paused" ></path>
<path d="M 1237 761 L 1234 642 L 1136 677 Z" stroke="#116ab6" fill="#116ab6" style="animation-play-state:paused" ></path>
<path d="M 1252 -29 L 1141 -154 L 1164 -38 Z" stroke="#6dabee" fill="#6dabee" style="animation-play-state:paused" ></path>
<path d="M 1164 -38 L 1141 -154 L 1038 -35 Z" stroke="#6fadef" fill="#6fadef" style="animation-play-state:paused" ></path>
<path d="M 54 360 L 51 462 L 139 446 Z" stroke="#65a6ec" fill="#65a6ec" style="animation-play-state:paused" ></path>
<path d="M 58 83 L 136 150 L 145 67 Z" stroke="#87bef7" fill="#87bef7" style="animation-play-state:paused" ></path>
<path d="M 57 266 L -68 342 L 54 360 Z" stroke="#75b1f1" fill="#75b1f1" style="animation-play-state:paused" ></path>
<path d="M -55 472 L 52 570 L 51 462 Z" stroke="#65a6ec" fill="#65a6ec" style="animation-play-state:paused" ></path>
<path d="M 1353 360 L 1241 365 L 1221 437 Z" stroke="#287cc8" fill="#287cc8" style="animation-play-state:paused" ></path>
<path d="M 1248 259 L 1321 142 L 1234 161 Z" stroke="#3b8adb" fill="#3b8adb" style="animation-play-state:paused" ></path>
<path d="M 1353 360 L 1221 437 L 1337 467 Z" stroke="#237ac5" fill="#237ac5" style="animation-play-state:paused" ></path>
<path d="M 1330 -50 L 1252 -29 L 1236 74 Z" stroke="#5da0e9" fill="#5da0e9" style="animation-play-state:paused" ></path>
<path d="M 1236 74 L 1252 -29 L 1164 -38 Z" stroke="#5da0e9" fill="#5da0e9" style="animation-play-state:paused" ></path>
<path d="M 1332 268 L 1321 142 L 1248 259 Z" stroke="#3787d7" fill="#3787d7" style="animation-play-state:paused" ></path>
<path d="M 1337 467 L 1221 437 L 1238 550 Z" stroke="#1e76c0" fill="#1e76c0" style="animation-play-state:paused" ></path>
<path d="M 1416 159 L 1350 61 L 1321 142 Z" stroke="#408ee0" fill="#408ee0" style="animation-play-state:paused" ></path>
<path d="M 1325 550 L 1337 467 L 1238 550 Z" stroke="#1973bc" fill="#1973bc" style="animation-play-state:paused" ></path>
<path d="M 50 -20 L 58 83 L 145 67 Z" stroke="#94c5f9" fill="#94c5f9" style="animation-play-state:paused" ></path>
<path d="M 50 -20 L 145 67 L 151 -38 Z" stroke="#99c8f9" fill="#99c8f9" style="animation-play-state:paused" ></path>
<path d="M 51 462 L 52 570 L 137 556 Z" stroke="#5da0e9" fill="#5da0e9" style="animation-play-state:paused" ></path>
<path d="M 335 -151 L 137 -133 L 262 -123 Z" stroke="#a9d1fa" fill="#a9d1fa" style="animation-play-state:paused" ></path>
<path d="M 262 -123 L 137 -133 L 251 -31 Z" stroke="#a3cdfa" fill="#a3cdfa" style="animation-play-state:paused" ></path>
<path d="M 1333 661 L 1325 550 L 1238 550 Z" stroke="#146db8" fill="#146db8" style="animation-play-state:paused" ></path>
<path d="M 1337 467 L 1439 445 L 1353 360 Z" stroke="#2279c3" fill="#2279c3" style="animation-play-state:paused" ></path>
<path d="M 1333 661 L 1238 550 L 1234 642 Z" stroke="#136cb7" fill="#136cb7" style="animation-play-state:paused" ></path>
<path d="M 39 776 L 164 760 L 130 667 Z" stroke="#5098e5" fill="#5098e5" style="animation-play-state:paused" ></path>
<path d="M 130 667 L 164 760 L 253 673 Z" stroke="#4993e3" fill="#4993e3" style="animation-play-state:paused" ></path>
<path d="M 251 772 L 164 760 L 425 760 Z" stroke="#3e8dde" fill="#3e8dde" style="animation-play-state:paused" ></path>
<path d="M 1416 159 L 1321 142 L 1332 268 Z" stroke="#3a89d9" fill="#3a89d9" style="animation-play-state:paused" ></path>
<path d="M 1321 142 L 1350 61 L 1236 74 Z" stroke="#4893e2" fill="#4893e2" style="animation-play-state:paused" ></path>
<path d="M 1252 -29 L 1230 -137 L 1141 -154 Z" stroke="#73aff0" fill="#73aff0" style="animation-play-state:paused" ></path>
<path d="M 1054 778 L 1237 761 L 1129 741 Z" stroke="#126ab6" fill="#126ab6" style="animation-play-state:paused" ></path>
<path d="M 1129 741 L 1237 761 L 1136 677 Z" stroke="#126ab6" fill="#126ab6" style="animation-play-state:paused" ></path>
<path d="M 137 -133 L 50 -20 L 151 -38 Z" stroke="#a6cffa" fill="#a6cffa" style="animation-play-state:paused" ></path>
<path d="M -76 238 L 57 266 L 48 161 Z" stroke="#80b9f5" fill="#80b9f5" style="animation-play-state:paused" ></path>
<path d="M 1331 -149 L 1230 -137 L 1252 -29 Z" stroke="#71aef0" fill="#71aef0" style="animation-play-state:paused" ></path>
<path d="M 1141 -154 L 1230 -137 L 1024 -145 Z" stroke="#7cb6f4" fill="#7cb6f4" style="animation-play-state:paused" ></path>
<path d="M -63 561 L 37 657 L 52 570 Z" stroke="#60a2ea" fill="#60a2ea" style="animation-play-state:paused" ></path>
<path d="M 52 570 L 37 657 L 130 667 Z" stroke="#589ce7" fill="#589ce7" style="animation-play-state:paused" ></path>
<path d="M -55 472 L 51 462 L 54 360 Z" stroke="#6ba9ee" fill="#6ba9ee" style="animation-play-state:paused" ></path>
<path d="M 1325 750 L 1333 661 L 1234 642 Z" stroke="#0e66b3" fill="#0e66b3" style="animation-play-state:paused" ></path>
<path d="M 1325 550 L 1439 445 L 1337 467 Z" stroke="#1b74be" fill="#1b74be" style="animation-play-state:paused" ></path>
<path d="M -76 238 L 48 161 L -69 161 Z" stroke="#88bef8" fill="#88bef8" style="animation-play-state:paused" ></path>
<path d="M -76 238 L -68 342 L 57 266 Z" stroke="#7db6f4" fill="#7db6f4" style="animation-play-state:paused" ></path>
<path d="M -68 342 L -55 472 L 54 360 Z" stroke="#72aef0" fill="#72aef0" style="animation-play-state:paused" ></path>
<path d="M 1350 61 L 1330 -50 L 1236 74 Z" stroke="#569be7" fill="#569be7" style="animation-play-state:paused" ></path>
<path d="M -69 161 L 48 161 L -62 52 Z" stroke="#91c3f9" fill="#91c3f9" style="animation-play-state:paused" ></path>
<path d="M 1464 573 L 1439 445 L 1325 550 Z" stroke="#1770ba" fill="#1770ba" style="animation-play-state:paused" ></path>
<path d="M 1450 275 L 1416 159 L 1332 268 Z" stroke="#3586d5" fill="#3586d5" style="animation-play-state:paused" ></path>
<path d="M 1350 61 L 1466 -18 L 1330 -50 Z" stroke="#5b9fe8" fill="#5b9fe8" style="animation-play-state:paused" ></path>
<path d="M -62 52 L 48 161 L 58 83 Z" stroke="#91c3f9" fill="#91c3f9" style="animation-play-state:paused" ></path>
<path d="M 1450 275 L 1332 268 L 1353 360 Z" stroke="#2f81cf" fill="#2f81cf" style="animation-play-state:paused" ></path>
<path d="M 1439 445 L 1447 362 L 1353 360 Z" stroke="#257bc6" fill="#257bc6" style="animation-play-state:paused" ></path>
<path d="M 1447 362 L 1450 275 L 1353 360 Z" stroke="#2b7fcb" fill="#2b7fcb" style="animation-play-state:paused" ></path>
<path d="M 137 -133 L 40 -137 L 50 -20 Z" stroke="#afd4fb" fill="#afd4fb" style="animation-play-state:paused" ></path>
<path d="M 50 -20 L -62 52 L 58 83 Z" stroke="#9cc9f9" fill="#9cc9f9" style="animation-play-state:paused" ></path>
<path d="M 335 -151 L 40 -137 L 137 -133 Z" stroke="#b0d5fb" fill="#b0d5fb" style="animation-play-state:paused" ></path>
<path d="M -66 -23 L -62 52 L 50 -20 Z" stroke="#a6cffa" fill="#a6cffa" style="animation-play-state:paused" ></path>
<path d="M -73 767 L 39 776 L 37 657 Z" stroke="#5c9fe9" fill="#5c9fe9" style="animation-play-state:paused" ></path>
<path d="M 37 657 L 39 776 L 130 667 Z" stroke="#559be7" fill="#559be7" style="animation-play-state:paused" ></path>
<path d="M -147 573 L -63 561 L -55 472 Z" stroke="#6dabee" fill="#6dabee" style="animation-play-state:paused" ></path>
<path d="M -55 472 L -63 561 L 52 570 Z" stroke="#67a7ec" fill="#67a7ec" style="animation-play-state:paused" ></path>
<path d="M -79 655 L -63 561 L -147 573 Z" stroke="#6ba9ed" fill="#6ba9ed" style="animation-play-state:paused" ></path>
<path d="M 1237 761 L 1325 750 L 1234 642 Z" stroke="#0e66b2" fill="#0e66b2" style="animation-play-state:paused" ></path>
<path d="M 1425 651 L 1464 573 L 1325 550 Z" stroke="#126ab6" fill="#126ab6" style="animation-play-state:paused" ></path>
<path d="M 1411 -145 L 1331 -149 L 1330 -50 Z" stroke="#72aef0" fill="#72aef0" style="animation-play-state:paused" ></path>
<path d="M 1330 -50 L 1331 -149 L 1252 -29 Z" stroke="#6baaee" fill="#6baaee" style="animation-play-state:paused" ></path>
<path d="M 1230 -137 L 1411 -145 L 1024 -145 Z" stroke="#7ab4f3" fill="#7ab4f3" style="animation-play-state:paused" ></path>
<path d="M 40 -137 L -66 -23 L 50 -20 Z" stroke="#aed3fb" fill="#aed3fb" style="animation-play-state:paused" ></path>
<path d="M -164 265 L -76 238 L -160 169 Z" stroke="#8dc1f8" fill="#8dc1f8" style="animation-play-state:paused" ></path>
<path d="M 1549 166 L 1458 62 L 1416 159 Z" stroke="#3e8dde" fill="#3e8dde" style="animation-play-state:paused" ></path>
<path d="M 1416 159 L 1458 62 L 1350 61 Z" stroke="#4591e2" fill="#4591e2" style="animation-play-state:paused" ></path>
<path d="M 1550 343 L 1450 275 L 1447 362 Z" stroke="#2b7fcb" fill="#2b7fcb" style="animation-play-state:paused" ></path>
<path d="M 1550 343 L 1517 239 L 1450 275 Z" stroke="#2f81cf" fill="#2f81cf" style="animation-play-state:paused" ></path>
<path d="M 1450 275 L 1517 239 L 1416 159 Z" stroke="#3586d5" fill="#3586d5" style="animation-play-state:paused" ></path>
<path d="M 1425 651 L 1325 550 L 1333 661 Z" stroke="#1068b5" fill="#1068b5" style="animation-play-state:paused" ></path>
<path d="M -63 561 L -79 655 L 37 657 Z" stroke="#63a4eb" fill="#63a4eb" style="animation-play-state:paused" ></path>
<path d="M -137 380 L -55 472 L -68 342 Z" stroke="#77b2f2" fill="#77b2f2" style="animation-play-state:paused" ></path>
<path d="M 1325 750 L 1425 651 L 1333 661 Z" stroke="#0c63b1" fill="#0c63b1" style="animation-play-state:paused" ></path>
<path d="M -164 265 L -68 342 L -76 238 Z" stroke="#83bbf6" fill="#83bbf6" style="animation-play-state:paused" ></path>
<path d="M -164 265 L -137 380 L -68 342 Z" stroke="#80b9f5" fill="#80b9f5" style="animation-play-state:paused" ></path>
<path d="M -76 238 L -69 161 L -160 169 Z" stroke="#8ec2f8" fill="#8ec2f8" style="animation-play-state:paused" ></path>
<path d="M -160 169 L -69 161 L -157 60 Z" stroke="#9bc9f9" fill="#9bc9f9" style="animation-play-state:paused" ></path>
<path d="M 1458 62 L 1466 -18 L 1350 61 Z" stroke="#5299e6" fill="#5299e6" style="animation-play-state:paused" ></path>
<path d="M 1532 68 L 1466 -18 L 1458 62 Z" stroke="#5198e5" fill="#5198e5" style="animation-play-state:paused" ></path>
<path d="M -157 60 L -69 161 L -62 52 Z" stroke="#9dcaf9" fill="#9dcaf9" style="animation-play-state:paused" ></path>
<path d="M 1550 343 L 1447 362 L 1556 460 Z" stroke="#247ac5" fill="#247ac5" style="animation-play-state:paused" ></path>
<path d="M 1556 460 L 1439 445 L 1464 573 Z" stroke="#1972bc" fill="#1972bc" style="animation-play-state:paused" ></path>
<path d="M 1556 460 L 1447 362 L 1439 445 Z" stroke="#2078c2" fill="#2078c2" style="animation-play-state:paused" ></path>
<path d="M -267 362 L -160 435 L -137 380 Z" stroke="#81b9f5" fill="#81b9f5" style="animation-play-state:paused" ></path>
<path d="M -137 380 L -160 435 L -55 472 Z" stroke="#77b2f2" fill="#77b2f2" style="animation-play-state:paused" ></path>
<path d="M -267 362 L -137 380 L -164 265 Z" stroke="#85bcf7" fill="#85bcf7" style="animation-play-state:paused" ></path>
<path d="M -140 776 L -73 767 L -79 655 Z" stroke="#66a6ec" fill="#66a6ec" style="animation-play-state:paused" ></path>
<path d="M -79 655 L -73 767 L 37 657 Z" stroke="#61a3ea" fill="#61a3ea" style="animation-play-state:paused" ></path>
<path d="M 39 776 L -140 776 L 164 760 Z" stroke="#599ee8" fill="#599ee8" style="animation-play-state:paused" ></path>
<path d="M -160 435 L -147 573 L -55 472 Z" stroke="#73aff0" fill="#73aff0" style="animation-play-state:paused" ></path>
<path d="M 40 -137 L -65 -134 L -66 -23 Z" stroke="#b9d9fc" fill="#b9d9fc" style="animation-play-state:paused" ></path>
<path d="M -66 -23 L -157 60 L -62 52 Z" stroke="#a8d0fa" fill="#a8d0fa" style="animation-play-state:paused" ></path>
<path d="M 335 -151 L -65 -134 L 40 -137 Z" stroke="#b6d8fb" fill="#b6d8fb" style="animation-play-state:paused" ></path>
<path d="M -164 -161 L -65 -134 L 335 -151 Z" stroke="#bddcfc" fill="#bddcfc" style="animation-play-state:paused" ></path>
<path d="M 1531 576 L 1556 460 L 1464 573 Z" stroke="#156db8" fill="#156db8" style="animation-play-state:paused" ></path>
<path d="M 1553 -116 L 1411 -145 L 1466 -18 Z" stroke="#6caaee" fill="#6caaee" style="animation-play-state:paused" ></path>
<path d="M 1466 -18 L 1411 -145 L 1330 -50 Z" stroke="#69a8ed" fill="#69a8ed" style="animation-play-state:paused" ></path>
<path d="M 1331 -149 L 1411 -145 L 1230 -137 Z" stroke="#78b3f2" fill="#78b3f2" style="animation-play-state:paused" ></path>
<path d="M 1024 -145 L 1411 -145 L 526 -140 Z" stroke="#80b9f5" fill="#80b9f5" style="animation-play-state:paused" ></path>
<path d="M -178 -58 L -157 60 L -66 -23 Z" stroke="#b2d5fb" fill="#b2d5fb" style="animation-play-state:paused" ></path>
<path d="M -160 169 L -270 246 L -164 265 Z" stroke="#94c5f9" fill="#94c5f9" style="animation-play-state:paused" ></path>
<path d="M 1550 343 L 1549 166 L 1517 239 Z" stroke="#3384d2" fill="#3384d2" style="animation-play-state:paused" ></path>
<path d="M 1517 239 L 1549 166 L 1416 159 Z" stroke="#3988d8" fill="#3988d8" style="animation-play-state:paused" ></path>
<path d="M 1556 460 L 1549 166 L 1550 343 Z" stroke="#2b7fcb" fill="#2b7fcb" style="animation-play-state:paused" ></path>
<path d="M 1325 750 L 1461 752 L 1425 651 Z" stroke="#095fae" fill="#095fae" style="animation-play-state:paused" ></path>
<path d="M 1539 653 L 1531 576 L 1464 573 Z" stroke="#0f67b3" fill="#0f67b3" style="animation-play-state:paused" ></path>
<path d="M 1237 761 L 1461 752 L 1325 750 Z" stroke="#0960ae" fill="#0960ae" style="animation-play-state:paused" ></path>
<path d="M 1054 778 L 1461 752 L 1237 761 Z" stroke="#0d65b2" fill="#0d65b2" style="animation-play-state:paused" ></path>
<path d="M 1549 166 L 1532 68 L 1458 62 Z" stroke="#4390e1" fill="#4390e1" style="animation-play-state:paused" ></path>
<path d="M 1539 653 L 1464 573 L 1425 651 Z" stroke="#0d65b2" fill="#0d65b2" style="animation-play-state:paused" ></path>
<path d="M 1556 460 L 1531 576 L 1549 166 Z" stroke="#2279c4" fill="#2279c4" style="animation-play-state:paused" ></path>
<path d="M -277 557 L -155 644 L -147 573 Z" stroke="#74b0f1" fill="#74b0f1" style="animation-play-state:paused" ></path>
<path d="M -147 573 L -155 644 L -79 655 Z" stroke="#6cabee" fill="#6cabee" style="animation-play-state:paused" ></path>
<path d="M -65 -134 L -178 -58 L -66 -23 Z" stroke="#badafc" fill="#badafc" style="animation-play-state:paused" ></path>
<path d="M 1461 752 L 1539 653 L 1425 651 Z" stroke="#0960ae" fill="#0960ae" style="animation-play-state:paused" ></path>
<path d="M 1549 166 L 1563 -36 L 1532 68 Z" stroke="#4a94e3" fill="#4a94e3" style="animation-play-state:paused" ></path>
<path d="M 1532 68 L 1563 -36 L 1466 -18 Z" stroke="#589de7" fill="#589de7" style="animation-play-state:paused" ></path>
<path d="M -155 644 L -140 776 L -79 655 Z" stroke="#6aa9ed" fill="#6aa9ed" style="animation-play-state:paused" ></path>
<path d="M -73 767 L -140 776 L 39 776 Z" stroke="#62a3ea" fill="#62a3ea" style="animation-play-state:paused" ></path>
<path d="M -267 172 L -160 169 L -157 60 Z" stroke="#a1ccfa" fill="#a1ccfa" style="animation-play-state:paused" ></path>
<path d="M -267 172 L -270 246 L -160 169 Z" stroke="#9cc9f9" fill="#9cc9f9" style="animation-play-state:paused" ></path>
<path d="M -160 435 L -277 557 L -147 573 Z" stroke="#78b3f2" fill="#78b3f2" style="animation-play-state:paused" ></path>
<path d="M -155 644 L -258 753 L -140 776 Z" stroke="#6fadef" fill="#6fadef" style="animation-play-state:paused" ></path>
<path d="M -258 55 L -267 172 L -157 60 Z" stroke="#aad1fa" fill="#aad1fa" style="animation-play-state:paused" ></path>
<path d="M -270 246 L -267 362 L -164 265 Z" stroke="#8fc2f8" fill="#8fc2f8" style="animation-play-state:paused" ></path>
<path d="M -267 362 L -278 441 L -160 435 Z" stroke="#83bbf6" fill="#83bbf6" style="animation-play-state:paused" ></path>
<path d="M -65 -134 L -164 -161 L -178 -58 Z" stroke="#c6e1fd" fill="#c6e1fd" style="animation-play-state:paused" ></path>
<path d="M -264 -39 L -258 55 L -157 60 Z" stroke="#b5d7fb" fill="#b5d7fb" style="animation-play-state:paused" ></path>
<path d="M 526 -140 L -164 -161 L 335 -151 Z" stroke="#add3fb" fill="#add3fb" style="animation-play-state:paused" ></path>
<path d="M -278 441 L -277 557 L -160 435 Z" stroke="#7fb8f4" fill="#7fb8f4" style="animation-play-state:paused" ></path>
<path d="M 1563 -36 L 1553 -116 L 1466 -18 Z" stroke="#65a5eb" fill="#65a5eb" style="animation-play-state:paused" ></path>
<path d="M 1549 166 L 1553 -116 L 1563 -36 Z" stroke="#589ce7" fill="#589ce7" style="animation-play-state:paused" ></path>
<path d="M -267 172 L -258 55 L -270 246 Z" stroke="#a5cefa" fill="#a5cefa" style="animation-play-state:paused" ></path>
<path d="M -270 246 L -258 55 L -267 362 Z" stroke="#9cc9f9" fill="#9cc9f9" style="animation-play-state:paused" ></path>
<path d="M -267 362 L -258 55 L -278 441 Z" stroke="#94c5f9" fill="#94c5f9" style="animation-play-state:paused" ></path>
<path d="M -264 -39 L -157 60 L -178 -58 Z" stroke="#b9dafc" fill="#b9dafc" style="animation-play-state:paused" ></path>
<path d="M 1054 778 L 1540 769 L 1461 752 Z" stroke="#095fae" fill="#095fae" style="animation-play-state:paused" ></path>
<path d="M 1461 752 L 1540 769 L 1539 653 Z" stroke="#055baa" fill="#055baa" style="animation-play-state:paused" ></path>
<path d="M 1539 653 L 1540 769 L 1531 576 Z" stroke="#0960ae" fill="#0960ae" style="animation-play-state:paused" ></path>
<path d="M 1531 576 L 1540 769 L 1549 166 Z" stroke="#1770bb" fill="#1770bb" style="animation-play-state:paused" ></path>
<path d="M 1549 166 L 1540 769 L 1553 -116 Z" stroke="#3082d0" fill="#3082d0" style="animation-play-state:paused" ></path>
<path d="M 769 778 L 1540 769 L 1054 778 Z" stroke="#136bb7" fill="#136bb7" style="animation-play-state:paused" ></path>
<path d="M -277 557 L -269 652 L -155 644 Z" stroke="#77b2f2" fill="#77b2f2" style="animation-play-state:paused" ></path>
<path d="M -270 -132 L -264 -39 L -178 -58 Z" stroke="#c8e2fd" fill="#c8e2fd" style="animation-play-state:paused" ></path>
<path d="M -269 652 L -258 753 L -155 644 Z" stroke="#74b0f1" fill="#74b0f1" style="animation-play-state:paused" ></path>
<path d="M -277 557 L -258 753 L -269 652 Z" stroke="#79b4f3" fill="#79b4f3" style="animation-play-state:paused" ></path>
<path d="M -164 -161 L -270 -132 L -178 -58 Z" stroke="#cce4fd" fill="#cce4fd" style="animation-play-state:paused" ></path>
<path d="M -264 -39 L -270 -132 L -258 55 Z" stroke="#c4e0fc" fill="#c4e0fc" style="animation-play-state:paused" ></path></g>
<style type="text/css" style="animation-play-state:paused" >#bk-0.5527466961538519 path { stroke-width: 1 }</style></g></svg>